<svg height="511pt" viewBox="0 0 511 511.99468" width="511pt" xmlns="http://www.w3.org/2000/svg"><path d="m101.808594 389.5 28.667968-28.667969 21.179688 21.179688-28.667969 28.667969zm0 0" fill="#84caff"/><path d="m177.609375 313.695312 28.667969-28.664062 21.183594 21.179688-28.667969 28.667968zm0 0" fill="#0089ff"/><path d="m130.839844 458.246094c-4.910156 1.160156-9.863282 1.71875-14.753906 1.71875-16.640626 0-32.691407-6.507813-44.808594-18.585938-.03125-.03125-.050782-.050781-.082032-.082031-15.691406-15.691406-22.027343-37.988281-16.957031-59.640625l29.15625 6.828125c-2.695312 11.5.667969 23.328125 8.972657 31.632813.042968.039062.070312.070312.109374.097656 8.308594 8.246094 20.085938 11.570312 31.535157 8.886718zm0 0" fill="#ff633e"/><path d="m145.425781 508.820312c-.816406.191407-1.644531.371094-2.464843.550782-8.296876 1.753906-16.621094 2.625-24.863282 2.625-30.6875 0-60.261718-11.960938-82.652344-34.160156-.121093-.109376-.230468-.21875-.347656-.339844-.019531-.019532-.03125-.027344-.050781-.046875-29.039063-29.03125-40.765625-70.292969-31.375-110.382813l29.160156 6.839844c-7.007812 29.914062 1.726563 60.707031 23.386719 82.371094.019531.019531.050781.046875.070312.066406l.007813.011719c21.660156 21.601562 52.40625 30.304687 82.292969 23.308593l6.765625 28.875zm0 0" fill="#ff633e"/><path d="m318.417969 267.457031 21.175781-21.171875 36.691406 36.691406-21.171875 21.175782zm0 0" fill="#4b5be7"/><path d="m208.339844 157.382812 21.175781-21.175781 36.695313 36.695313-21.175782 21.175781zm0 0" fill="#0089ff"/><path d="m356.796875 134.515625 30.355469-30.355469 21.179687 21.183594-30.355469 30.355469zm0 0" fill="#0089ff"/><path d="m141.210938 371.5625 10.449218 10.453125-28.667968 28.667969-10.46875-10.472656zm0 0" fill="#84caff"/><path d="m217.074219 295.820312 10.390625 10.390626-28.667969 28.667968-10.414063-10.410156zm0 0" fill="#4b5be7"/><path d="m408.335938 125.339844-30.355469 30.355468-10.269531-10.269531 30.382812-30.328125zm0 0" fill="#4b5be7"/><path d="m116.085938 459.964844c-16.640626 0-32.691407-6.507813-44.808594-18.585938l21.199218-21.164062c8.308594 8.246094 20.085938 11.570312 31.535157 8.886718l6.828125 29.144532c-4.910156 1.160156-9.863282 1.71875-14.753906 1.71875zm0 0" fill="#ff3100"/><path d="m425.253906 181.796875-171.316406 171.320313-94.558594-94.558594 171.316406-171.320313zm0 0" fill="#b1dcff"/><path d="m378.308594 134.851562 46.945312 46.945313-171.316406 171.320313-47.085938-47.085938zm0 0" fill="#84caff"/><path d="m72.136719 100.511719 100.511719-100.511719 105.25 105.25-100.511719 100.511719zm0 0" fill="#0089ff"/><path d="m306.726562 335.105469 100.511719-100.511719 105.253907 105.253906-100.511719 100.511719zm0 0" fill="#4b5be7"/><path d="m222.171875 371.425781c0 21.660157-8.433594 42.03125-23.753906 57.34375l-10.582031 10.589844-114.703126-114.699219 10.589844-10.582031c31.625-31.621094 83.070313-31.621094 114.695313 0 .058593.058594.128906.128906.179687.191406 15.210938 15.289063 23.574219 35.585938 23.574219 57.15625zm0 0" fill="#0089ff"/><path d="m349.210938 68.726562 63.492187-63.496093 94.558594 94.558593-63.492188 63.496094zm0 0" fill="#0089ff"/><path d="m198.597656 314.269531c15.210938 15.289063 23.574219 35.585938 23.574219 57.15625 0 21.660157-8.433594 42.03125-23.753906 57.34375l-10.582031 10.589844-57.214844-57.214844zm0 0" fill="#4b5be7"/><path d="m507.265625 99.785156-63.492187 63.496094-46.9375-46.933594 63.546874-63.445312zm0 0" fill="#4b5be7"/><path d="m145.355469 508.539062c-.796875.210938-1.597657.492188-2.394531.832032-8.296876 1.753906-16.621094 2.625-24.863282 2.625-30.6875 0-60.261718-11.960938-82.652344-34.160156l20.851563-21.480469c21.660156 21.601562 52.40625 30.304687 82.292969 23.308593zm0 0" fill="#ff3100"/></svg>